<?xml version="1.0" encoding="utf-8"?>
<!-- Generator: Adobe Illustrator 20.1.0, SVG Export Plug-In . SVG Version: 6.00 Build 0)  -->
<svg version="1.1" xmlns="http://www.w3.org/2000/svg" xmlns:xlink="http://www.w3.org/1999/xlink" x="0px" y="0px" width="198.2px"
	 height="40.1px" viewBox="0 0 198.2 40.1" style="enable-background:new 0 0 198.2 40.1;" xml:space="preserve">
<style type="text/css">
	.st0{fill-rule:evenodd;clip-rule:evenodd;fill:url(#SVGID_1_);}
	.st1{fill-rule:evenodd;clip-rule:evenodd;fill:#790E2E;}
	.st2{fill-rule:evenodd;clip-rule:evenodd;fill:#B01D2D;}
	.st3{fill:#9C0631;}
</style>
<g id="Layer_1">
</g>
<g id="Layer_2">
	<g>
		<linearGradient id="SVGID_1_" gradientUnits="userSpaceOnUse" x1="0.1782" y1="8.7366" x2="35.1266" y2="8.7366">
			<stop  offset="0" style="stop-color:#790E2E"/>
			<stop  offset="7.594121e-02" style="stop-color:#8A132F"/>
			<stop  offset="0.2579" style="stop-color:#AE1D31"/>
			<stop  offset="0.4419" style="stop-color:#C92633"/>
			<stop  offset="0.6265" style="stop-color:#DD2B34"/>
			<stop  offset="0.812" style="stop-color:#E92F35"/>
			<stop  offset="1" style="stop-color:#ED3035"/>
		</linearGradient>
		<polygon class="st0" points="0.2,0 17.7,17.5 35.1,0 		"/>
		<polygon class="st1" points="0,34.8 0,35 35,35 35,34.8 17.5,17.4 		"/>
		<polygon class="st2" points="0.2,0 0,0 0,34.8 17.6,17.4 		"/>
		<path class="st3" d="M45.9,16l7.6-8.7h5.1l-8.7,9.5L59,28h-5.3l-7.3-9.3l-0.5,0.5V28h-4V7.3h4V16z"/>
		<path class="st3" d="M70,14.5h3.8V28H70v-1.7c-1.4,2-3.2,2.2-4.1,2.2c-4.1,0-6.9-3.2-6.9-7.2c0-4,2.7-7.1,6.7-7.1
			c1,0,3,0.2,4.3,2.2V14.5z M62.9,21.2c0,2.1,1.6,3.8,3.7,3.8s3.7-1.7,3.7-3.8c0-2.1-1.6-3.8-3.7-3.8S62.9,19.1,62.9,21.2z"/>
		<path class="st3" d="M79.6,35.1h-3.8V14.5h3.8v1.7c1.3-1.9,3.2-2.2,4.4-2.2c4,0,6.6,3.1,6.6,7.1c0,4.1-2.7,7.2-6.7,7.2
			c-0.9,0-2.8-0.2-4.3-2.2V35.1z M79.2,21.2c0,2.1,1.6,3.8,3.7,3.8s3.7-1.7,3.7-3.8c0-2.1-1.6-3.8-3.7-3.8S79.2,19.1,79.2,21.2z"/>
		<path class="st3" d="M94,6.6c1.2,0,2.3,1,2.3,2.3s-1,2.3-2.3,2.3s-2.3-1-2.3-2.3S92.8,6.6,94,6.6z M95.9,14.5V28h-3.8V14.5H95.9z"
			/>
		<path class="st3" d="M103.8,17.8V28H100V17.8h-1.5v-3.2h1.5V9.9h3.8v4.6h2.6v3.2H103.8z"/>
		<path class="st3" d="M118,14.5h3.8V28H118v-1.7c-1.4,2-3.2,2.2-4.1,2.2c-4.1,0-6.9-3.2-6.9-7.2c0-4,2.7-7.1,6.7-7.1
			c1,0,3,0.2,4.3,2.2V14.5z M110.9,21.2c0,2.1,1.6,3.8,3.7,3.8c2.2,0,3.7-1.7,3.7-3.8c0-2.1-1.5-3.8-3.7-3.8
			C112.5,17.4,110.9,19.1,110.9,21.2z"/>
		<path class="st3" d="M127.8,4.7V28H124V4.7H127.8z"/>
		<path class="st3" d="M141.6,7.3c1.1,0,3.4,0,5.1,1.3c1.2,0.9,1.9,2.5,1.9,4.3c0,2.7-1.8,3.8-2.3,4.1c1.4,0.2,2.2,0.8,2.7,1.3
			c1.2,1.2,1.5,2.8,1.5,3.9c0,1.2-0.3,2.9-1.8,4.2c-1.6,1.4-3.4,1.7-5.2,1.7h-6.9V7.3H141.6z M140.5,15.9h1.1c0.6,0,3.1-0.1,3.1-2.7
			c0-1.9-1.5-2.6-3.1-2.6h-1.2V15.9z M140.5,24.7h1.7c0.7,0,1.9,0,2.8-0.6c1-0.6,1.3-1.6,1.3-2.4c0-0.7-0.2-1.8-1.5-2.4
			c-0.9-0.4-1.9-0.4-2.8-0.4h-1.5V24.7z"/>
		<path class="st3" d="M163.2,14.5h3.8V28h-3.8v-1.7c-1.4,2-3.2,2.2-4.1,2.2c-4.1,0-6.9-3.2-6.9-7.2c0-4,2.7-7.1,6.7-7.1
			c1,0,3,0.2,4.3,2.2V14.5z M156.1,21.2c0,2.1,1.5,3.8,3.7,3.8c2.2,0,3.7-1.7,3.7-3.8c0-2.1-1.6-3.8-3.7-3.8
			C157.7,17.4,156.1,19.1,156.1,21.2z"/>
		<path class="st3" d="M169.2,14.5h3.8v1.7c0.7-1,2-2.2,4.2-2.2c1.2,0,2.9,0.3,4,1.6c0.9,1.1,1.1,2.5,1.1,3.8V28h-3.8v-7.3
			c0-0.7,0-1.9-0.7-2.6c-0.6-0.6-1.4-0.7-1.8-0.7c-1,0-1.8,0.3-2.3,1.2c-0.6,0.9-0.6,1.8-0.6,2.6V28h-3.8V14.5z"/>
		<path class="st3" d="M188.9,4.7v14.7l5-4.9h4.9l-6.3,5.9l6.8,7.5h-5l-5-5.7l-0.4,0.4V28h-3.8V4.7H188.9z"/>
		<g>
			<path class="st3" d="M136.5,34.9h1.8c0.3,0,0.5,0,0.8,0.1c0.2,0,0.4,0.1,0.6,0.2c0.2,0.1,0.3,0.2,0.4,0.4s0.1,0.4,0.1,0.6
				c0,0.1,0,0.2-0.1,0.4c0,0.1-0.1,0.2-0.2,0.3c-0.1,0.1-0.2,0.2-0.3,0.3c-0.1,0.1-0.2,0.1-0.4,0.2v0c0.4,0.1,0.7,0.2,0.8,0.4
				s0.3,0.5,0.3,0.8c0,0.3-0.1,0.5-0.2,0.7c-0.1,0.2-0.2,0.4-0.4,0.5s-0.4,0.2-0.6,0.3c-0.2,0.1-0.5,0.1-0.8,0.1h-1.9V34.9z
				 M138.2,37c0.3,0,0.5-0.1,0.6-0.2c0.1-0.1,0.2-0.3,0.2-0.5s-0.1-0.3-0.2-0.4c-0.1-0.1-0.3-0.1-0.6-0.1h-0.6V37H138.2z
				 M138.3,39.2c0.6,0,1-0.2,1-0.7c0-0.2-0.1-0.4-0.2-0.5c-0.2-0.1-0.4-0.2-0.7-0.2h-0.7v1.4H138.3z"/>
			<path class="st3" d="M143.2,34.5c-0.2,0-0.4-0.1-0.5-0.2c-0.1-0.1-0.2-0.3-0.2-0.4s0.1-0.3,0.2-0.4c0.1-0.1,0.3-0.2,0.5-0.2
				s0.4,0.1,0.5,0.2c0.1,0.1,0.2,0.3,0.2,0.4s-0.1,0.3-0.2,0.4C143.6,34.4,143.4,34.5,143.2,34.5z M142.6,34.9h1.2v5.2h-1.2V34.9z"
				/>
			<path class="st3" d="M149,40.1l-1-1.9h-0.6v1.9h-1.2v-5.2h1.9c0.3,0,0.5,0,0.8,0.1c0.2,0.1,0.5,0.1,0.6,0.3
				c0.2,0.1,0.3,0.3,0.4,0.5c0.1,0.2,0.2,0.5,0.2,0.8c0,0.4-0.1,0.7-0.3,0.9c-0.2,0.2-0.4,0.4-0.7,0.6l1.2,2.1H149z M147.4,37.3h0.6
				c0.3,0,0.5-0.1,0.7-0.2c0.2-0.1,0.2-0.3,0.2-0.6s-0.1-0.4-0.2-0.5c-0.2-0.1-0.4-0.2-0.7-0.2h-0.6V37.3z"/>
			<path class="st3" d="M152.7,34.5c-0.2,0-0.4-0.1-0.5-0.2c-0.1-0.1-0.2-0.3-0.2-0.4s0.1-0.3,0.2-0.4c0.1-0.1,0.3-0.2,0.5-0.2
				s0.4,0.1,0.5,0.2c0.1,0.1,0.2,0.3,0.2,0.4s-0.1,0.3-0.2,0.4C153,34.4,152.9,34.5,152.7,34.5z M152.1,34.9h1.2v5.2h-1.2V34.9z"/>
			<path class="st3" d="M156,34.9h1.2l1.4,2.6l0.5,1.2h0c0-0.3-0.1-0.6-0.1-0.9c0-0.3-0.1-0.7-0.1-1v-1.8h1.1v5.2h-1.2l-1.4-2.6
				l-0.5-1.1h0c0,0.3,0.1,0.6,0.1,0.9c0,0.3,0.1,0.7,0.1,1v1.8H156V34.9z"/>
			<path class="st3" d="M162.3,37.5c0-0.4,0.1-0.8,0.2-1.2c0.1-0.3,0.3-0.6,0.5-0.9s0.5-0.4,0.8-0.5c0.3-0.1,0.6-0.2,1-0.2
				c0.3,0,0.6,0.1,0.9,0.2c0.3,0.1,0.5,0.3,0.7,0.5l-0.6,0.7c-0.1-0.1-0.3-0.2-0.4-0.3c-0.1-0.1-0.3-0.1-0.5-0.1
				c-0.2,0-0.4,0-0.5,0.1c-0.2,0.1-0.3,0.2-0.4,0.3c-0.1,0.1-0.2,0.3-0.3,0.5s-0.1,0.4-0.1,0.7c0,0.5,0.1,1,0.3,1.3s0.5,0.4,0.9,0.4
				c0.2,0,0.4,0,0.6-0.1c0.2-0.1,0.3-0.2,0.4-0.3l0.6,0.7c-0.2,0.3-0.5,0.4-0.7,0.6c-0.3,0.1-0.6,0.2-0.9,0.2c-0.3,0-0.7-0.1-1-0.2
				c-0.3-0.1-0.6-0.3-0.8-0.5c-0.2-0.2-0.4-0.5-0.5-0.8S162.3,38,162.3,37.5z"/>
			<path class="st3" d="M169.1,34.5c-0.2,0-0.4-0.1-0.5-0.2c-0.1-0.1-0.2-0.3-0.2-0.4s0.1-0.3,0.2-0.4c0.1-0.1,0.3-0.2,0.5-0.2
				s0.4,0.1,0.5,0.2c0.1,0.1,0.2,0.3,0.2,0.4s-0.1,0.3-0.2,0.4C169.5,34.4,169.3,34.5,169.1,34.5z M168.5,34.9h1.2v5.2h-1.2V34.9z"
				/>
			<path class="st3" d="M175.2,34.9h1.8c0.3,0,0.5,0,0.8,0.1c0.2,0,0.4,0.1,0.6,0.2c0.2,0.1,0.3,0.2,0.4,0.4s0.1,0.4,0.1,0.6
				c0,0.1,0,0.2-0.1,0.4c0,0.1-0.1,0.2-0.2,0.3c-0.1,0.1-0.2,0.2-0.3,0.3c-0.1,0.1-0.2,0.1-0.4,0.2v0c0.4,0.1,0.7,0.2,0.8,0.4
				s0.3,0.5,0.3,0.8c0,0.3-0.1,0.5-0.2,0.7c-0.1,0.2-0.2,0.4-0.4,0.5s-0.4,0.2-0.6,0.3c-0.2,0.1-0.5,0.1-0.8,0.1h-1.9V34.9z
				 M176.9,37c0.3,0,0.5-0.1,0.6-0.2c0.1-0.1,0.2-0.3,0.2-0.5s-0.1-0.3-0.2-0.4c-0.1-0.1-0.3-0.1-0.6-0.1h-0.6V37H176.9z M177,39.2
				c0.6,0,1-0.2,1-0.7c0-0.2-0.1-0.4-0.2-0.5c-0.2-0.1-0.4-0.2-0.7-0.2h-0.7v1.4H177z"/>
			<path class="st3" d="M183.8,38.9h-1.6l-0.3,1.2h-1.2l1.6-5.2h1.4l1.6,5.2h-1.2L183.8,38.9z M183.5,37.9l-0.1-0.5
				c-0.1-0.3-0.1-0.5-0.2-0.8c-0.1-0.3-0.1-0.6-0.2-0.8h0c-0.1,0.3-0.1,0.6-0.2,0.9c-0.1,0.3-0.1,0.6-0.2,0.8l-0.1,0.5H183.5z"/>
			<path class="st3" d="M187.2,34.9h1.2l1.4,2.6l0.5,1.2h0c0-0.3-0.1-0.6-0.1-0.9c0-0.3-0.1-0.7-0.1-1v-1.8h1.1v5.2h-1.2l-1.4-2.6
				l-0.5-1.1h0c0,0.3,0.1,0.6,0.1,0.9c0,0.3,0.1,0.7,0.1,1v1.8h-1.1V34.9z"/>
			<path class="st3" d="M193.8,34.9h1.2V37h0l1.6-2.1h1.3l-1.6,2.1l1.9,3.1h-1.3l-1.3-2.2l-0.6,0.8v1.4h-1.2V34.9z"/>
		</g>
	</g>
</g>
</svg>
