<svg width="860" height="701" viewBox="0 0 860 701" fill="none" xmlns="http://www.w3.org/2000/svg">
<path d="M859 210.035L857.429 213.711L852.567 211.741L847.312 211.654L836.705 214.236L832.188 216.467L823.938 228.282L820.107 231.608L815.295 233.139L812.937 231.389L820.255 224.519L825.656 217.518L824.183 214.98L824.429 205.09L822.219 201.764L813.625 198.264L812.937 197.17L816.964 194.194L813.576 189.381L809.254 189.731L805.326 184.524L806.799 183.43L813.773 185.574L821.728 195.244L828.848 199.664L830.076 204.478L831.844 206.009L834.348 202.552V199.095L830.96 184.742L836.607 186.755L842.009 191.044L844.17 190.694L843.384 188.9L844.759 186.755L858.165 199.839L859 210.035ZM700.728 263.42L699.549 274.929L700.237 293.176L696.505 301.359L694.295 279.173L692.036 270.684L687.567 262.852L686.487 256.331L688.009 248.98L683.982 233.052L680.594 228.107L666.156 213.054L660.656 211.741L652.75 205.396L641.505 203.296L639.295 201.896L638.902 200.145L606.933 185.092L596.523 182.029L587.094 180.935L578.009 182.467L573.197 181.898L561.558 175.597L542.75 171.002L530.179 170.039L521.192 172.621L515.741 176.691L511.321 185.88L504.987 184.874L502.973 185.749L498.75 183.342L493.79 182.423L485.737 183.036L475.179 185.53L471.201 188.331L467.076 194.763L462.509 197.87L457.598 198.176L445.567 193.975L440.902 193.8L428.183 196.645L425.924 187.63L421.455 181.373L415.661 176.778L409.473 174.415L404.219 170.39L391.942 168.42L380.205 168.945L373.478 168.07L367.683 169.733L365.129 168.158L358.795 171.177L354.424 171.877L350.643 174.722L348.728 178.572L349.072 183.298L351.232 187.105L352.509 188.068L356.536 186.624L359.335 187.893L359.728 189.643L357.763 191.744L354.964 192.4L354.817 202.29L349.955 216.686L346.714 220.099L342.638 222.068L334.879 221.85L329.429 219.881L315.187 222.287L300.75 227.101L293.384 231.214L283.121 239.134L276.933 241.104L266.62 239.134L260.187 239.353L253.018 241.235L247.763 245.523L241.428 254.931L228.562 259.701L222.326 264.252L220.902 269.153L225.371 269.328L224.634 270.991L220.558 272.96L217.071 273.047L216.089 266.615L214.125 266.221L208.429 271.909L187.165 279.742L176.214 288.975L165.804 292.739L152.938 295.452L148.223 298.077L133.098 312.911L121.018 315.493L117.286 318.337L115.911 320.657L113.701 334.703L115.862 349.362L125.978 362.184L126.174 364.284L118.12 365.422L113.946 368.922L106.335 367.347L100.049 372.773L94.107 373.911L89.3437 379.468L81.5847 383.757L79.2768 390.145L80.6517 398.547L84.7768 410.756L91.7499 423.664L97.1027 430.797L111.884 445.281L121.902 459.59L120.085 463.747L105.794 474.074L101.031 475.387L94.0581 480.2L88.3124 481.907L84.0401 486.152L81.0446 494.335L79.8169 503.655L86.2008 532.667L91.6028 544.701L95.2858 548.683L98.5267 554.984L92.4375 562.204L84.9731 563.604L79.3748 569.074L76.6248 584.959L72.6963 593.141L65.4777 600.887L63.5133 605.744L62.924 616.377L64.8885 629.505L72.6963 655.541L77.3124 662.105L83.942 676.327L75.8392 680.484L68.2277 682.059L57.0803 687.835L48.2902 695.274L44.6563 700L41.7589 694.268L41.0713 691.773L40.0891 668.494L39.4018 666.131L36.3081 660.442L35.6205 657.992L35.1295 652.784L35.4242 603.906L36.7499 598.48L43.134 589.816L41.0713 568.024L40.3349 553.715L38.4688 549.689L32.1338 542.863L27.4688 535.205L19.759 526.585L14.4062 516.87L12.2454 503.218L8.90618 497.398L6.89292 490.353L4.92851 486.808L1 484.095L12.442 464.36L13.2768 459.809L13.5223 445.5L14.5536 441.124L17.2053 437.623L22.0177 432.679L26.8304 425.196L33.1651 418.545L35.0312 414.606L35.4242 410.012L34.9821 405.417L34.2945 403.229L31.0044 397.541L29.973 393.077L29.7767 385.945L30.2188 381.306L30.8572 379.162L36.3081 369.623L45.2947 359.47L56.2455 340.435L56.8348 338.291L56.7857 333.828L56.1472 331.64L52.8571 325.908L52.2187 323.72L52.1696 319.256L52.808 317.156L55.8526 313.218L61.991 307.923L66.3616 304.772L67.5401 304.247L73.1876 301.797L73.826 301.315L74.6607 300.921L75.4955 300.134L75.8392 299.871L75.9867 299.609L77.0669 298.559L83.5983 288.144L84.2367 285.956L85.2677 276.723L85.9062 274.579L89.0491 268.978L89.6875 266.746L89.8347 264.952L89.933 264.383V263.289L90.1785 259.526L90.0313 197.476L89.0491 192.838L85.857 187.149L85.2186 184.961L84.1384 170.871L83.5 168.683L80.3079 162.951L79.5223 158.531L80.259 154.155L80.9954 152.842L83.5491 148.598L85.0223 145.491L85.5624 144.484L91.357 135.514L93.6652 132.932L94.0581 132.67L95.7767 131.707L97.692 130.963L99.8527 130.482L102.652 130.219L120.036 130.044H120.134L122.639 129.563L129.12 126.894L133.982 125.712L135.013 125.274L136.241 124.968L136.732 124.618L137.812 124.181L140.317 121.905L143.263 117.66L144.589 113.985L146.013 107.158L148.616 102.826L150.924 100.157L153.723 98.3192L160.942 96.35L167.473 93.5932L172.58 92.8931L177.638 93.2869L185.25 96.3938L194.629 98.0566H194.679H194.728L212.21 95.1685L213.83 94.3371L220.902 92.8055L227.482 90.1363L229.987 89.6112L238.04 89.3486L262.692 89.8737L267.996 90.3989L270.451 91.0115L276.786 94.2058L285.379 97.7503L287.295 98.1441H287.344H287.393L289.308 97.8378L297.951 94.6872L304.188 91.5803L315.237 87.117L330.705 85.4104L337.139 82.7411L347.107 80.9033L353.54 78.234L355.995 77.7088L366.554 77.0087L369.058 76.5274L375.589 73.9456L385.902 72.6329L388.161 71.9327L388.897 71.2763L389.388 71.0576L390.125 70.2262L390.469 69.9198L391.254 67.9944V63.7061L390.469 61.737L388.21 59.6803L385.951 58.8926L375.638 57.1423L369.107 54.298L366.603 53.6854L353.147 52.854L348.04 51.935L330.705 43.8834L320.687 41.5642L314.254 38.6324L311.799 38.0635L306.692 37.976H306.643L304.188 38.4574L293.138 43.052L287 46.0714L280.567 47.9092L276.688 48.303L274.674 47.7342L275.705 44.8461L276.098 35.8319L278.357 25.8111L285.281 16.5781L287.54 16.8844L306.692 14.4777L313.272 15.134L324.223 21.1727L335.911 23.4482L376.473 17.9784L412.272 10.9332L430.098 4.10689L439.478 2.05023L447.875 2.1815L457.304 7.9576L464.866 8.70156L489.371 3.62554L495.411 3.75681L501.353 1L502.924 5.02578L498.308 12.3335L499.879 16.0967L513.973 29.5744L516.723 39.5513L519.866 43.4458L527.085 47.6467L530.817 53.1603L535.482 55.4357L553.652 57.3611L557.04 60.4242L565.339 61.6057L574.719 67.3818L579.04 65.1064L581.938 65.1501L586.161 67.5569L592.447 67.3381L595.835 68.6508L598.683 71.4951L603.25 70.62L610.862 82.3472L611.156 87.0732L617.442 92.6305L618.866 97.619L625.152 101.251L626.92 108.69L630.848 110.222L634.433 107.377L639.344 120.461L644.255 125.712L668.71 138.446L675.978 143.741L677.942 153.105L683.098 163.957L691.054 175.903L692.527 180.717L691.839 197.17L692.92 207.497L689.188 224.913L693.607 240.535L692.576 246.88L696.308 252.393L697.143 261.495L700.728 263.42ZM235.634 448.782H221L222.768 464.01L219.478 468.911L221.295 471.449L231.214 468.298L237.353 467.992L239.415 466.417L240.447 462.785L235.781 454.077L235.634 448.782ZM667.482 98.6254L671.362 108.69L674.996 113.328L675.094 118.361L680.545 120.548L686.192 128.119L680.496 130.263L681.134 131.882L685.406 132.232L688.844 142.603L691.152 156.343L693.263 156.693L692.281 141.509L695.817 133.632L698.812 131.094L698.714 128.119L695.964 120.417L692.478 120.461L689.335 116.917L687.813 108.602L685.75 106.021L688.942 99.5007L684.228 86.5918L681.183 84.0976H677.107L672.982 80.1593L669.937 81.9534L668.464 84.7978L665.665 85.6291L661.442 88.9548L657.219 88.0797L656.433 89.9175L659.134 93.9433L667.482 98.6254Z" fill="#CBE0BA" stroke="#164107" stroke-width="0.5"/>
</svg>
